<svg width="47" height="44" viewBox="0 0 47 44" fill="none" xmlns="http://www.w3.org/2000/svg"><path d="M45.882 43.733a.97.97 0 100-1.94.97.97 0 000 1.94zm0-8.388a.97.97 0 100-1.94.97.97 0 000 1.94zm0-8.385a.97.97 0 100-1.941.97.97 0 000 1.94zm0-8.317a.97.97 0 100-1.94.97.97 0 000 1.94zm0-8.386a.97.97 0 100-1.94.97.97 0 000 1.94zm0-8.317a.97.97 0 100-1.94.97.97 0 000 1.94zM36.94 43.733a.97.97 0 100-1.941.97.97 0 000 1.94zm0-8.388a.97.97 0 100-1.94.97.97 0 000 1.94zm0-8.385a.97.97 0 100-1.941.97.97 0 000 1.94zm0-8.317a.97.97 0 100-1.94.97.97 0 000 1.94zm0-8.386a.97.97 0 100-1.94.97.97 0 000 1.94zm0-8.317a.97.97 0 100-1.94.97.97 0 000 1.94zm-9.01 41.793a.97.97 0 100-1.941.97.97 0 000 1.94zm0-8.388a.97.97 0 100-1.94.97.97 0 000 1.94zm0-8.385a.97.97 0 100-1.941.97.97 0 000 1.94zm0-8.317a.97.97 0 100-1.94.97.97 0 000 1.94zm0-8.386a.97.97 0 100-1.94.97.97 0 000 1.94zm.001-8.317a.97.97 0 100-1.94.97.97 0 000 1.94zm-9.01 41.793a.97.97 0 100-1.941.97.97 0 000 1.94zm0-8.388a.97.97 0 100-1.94.97.97 0 000 1.94zm0-8.385a.97.97 0 100-1.941.97.97 0 000 1.94zm0-8.317a.97.97 0 100-1.94.97.97 0 000 1.94zm0-8.386a.97.97 0 100-1.94.97.97 0 000 1.94zm0-8.317a.97.97 0 100-1.94.97.97 0 000 1.94zm-9.01 41.793a.97.97 0 100-1.941.97.97 0 000 1.94zm0-8.388a.97.97 0 100-1.94.97.97 0 000 1.94zm0-8.385a.97.97 0 100-1.941.97.97 0 000 1.94zm0-8.317a.97.97 0 100-1.94.97.97 0 000 1.94zm0-8.386a.97.97 0 100-1.94.97.97 0 000 1.94zm.001-8.317a.97.97 0 100-1.94.97.97 0 000 1.94zM.97 43.733a.97.97 0 100-1.941.97.97 0 000 1.94zm0-8.388a.97.97 0 100-1.94.97.97 0 000 1.94zm0-8.385a.97.97 0 100-1.941.97.97 0 000 1.94zm0-8.317a.97.97 0 100-1.94.97.97 0 000 1.94zm0-8.386a.97.97 0 100-1.94.97.97 0 000 1.94zm0-8.317A.97.97 0 10.97 0a.97.97 0 000 1.94z" fill="#64CCE3"/></svg>