<svg width="47" height="44" viewBox="0 0 47 44" fill="none" xmlns="http://www.w3.org/2000/svg"><path d="M.97 43.732a.97.97 0 100-1.94.97.97 0 000 1.94zm0-8.386a.97.97 0 100-1.94.97.97 0 000 1.94zm0-8.386a.97.97 0 100-1.94.97.97 0 000 1.94zm0-8.317a.97.97 0 100-1.94.97.97 0 000 1.94zm0-8.385a.97.97 0 100-1.94.97.97 0 000 1.94zm.001-8.317a.97.97 0 100-1.94.97.97 0 000 1.94zm44.911 41.79a.97.97 0 100-1.94.97.97 0 000 1.94zm0-8.385a.97.97 0 100-1.94.97.97 0 000 1.94zm0-8.386a.97.97 0 100-1.941.97.97 0 000 1.94zm0-8.317a.97.97 0 100-1.94.97.97 0 000 1.94zm0-8.386a.97.97 0 100-1.94.97.97 0 000 1.94zm0-8.317a.97.97 0 100-1.94.97.97 0 000 1.94zm-8.941 41.791a.97.97 0 100-1.94.97.97 0 000 1.94zm0-8.385a.97.97 0 100-1.94.97.97 0 000 1.94zm0-8.386a.97.97 0 100-1.941.97.97 0 000 1.94zm0-8.317a.97.97 0 100-1.94.97.97 0 000 1.94zm0-8.386a.97.97 0 100-1.94.97.97 0 000 1.94zm0-8.317a.97.97 0 100-1.94.97.97 0 000 1.94zm-9.009 41.791a.97.97 0 100-1.94.97.97 0 000 1.94zm0-8.385a.97.97 0 100-1.94.97.97 0 000 1.94zm0-8.386a.97.97 0 100-1.941.97.97 0 000 1.94zm0-8.317a.97.97 0 100-1.94.97.97 0 000 1.94zm0-8.386a.97.97 0 100-1.94.97.97 0 000 1.94zm-.001-8.317a.97.97 0 100-1.94.97.97 0 000 1.94zm-9.009 41.791a.97.97 0 100-1.94.97.97 0 000 1.94zm0-8.385a.97.97 0 100-1.94.97.97 0 000 1.94zm0-8.386a.97.97 0 100-1.941.97.97 0 000 1.94zm0-8.317a.97.97 0 100-1.94.97.97 0 000 1.94zm0-8.386a.97.97 0 100-1.94.97.97 0 000 1.94zm-.001-8.317a.97.97 0 100-1.94.97.97 0 000 1.94zM9.912 43.731a.97.97 0 100-1.94.97.97 0 000 1.94zm0-8.385a.97.97 0 100-1.94.97.97 0 000 1.94zm0-8.386a.97.97 0 100-1.941.97.97 0 000 1.94zm0-8.317a.97.97 0 100-1.941.97.97 0 000 1.94zm0-8.386a.97.97 0 100-1.94.97.97 0 000 1.94zm0-8.317a.97.97 0 100-1.94.97.97 0 000 1.94z" fill="#DE6944"/></svg>