<?xml version="1.0" encoding="utf-8"?><svg width="47" height="44" fill="none" xmlns="http://www.w3.org/2000/svg" viewBox="0 0 47 44"><path d="M45.882 43.733a.97.97 0 100-1.94.97.97 0 000 1.94zM45.882 35.345a.97.97 0 100-1.94.97.97 0 000 1.94zM45.882 26.96a.97.97 0 100-1.941.97.97 0 000 1.94zM45.882 18.643a.97.97 0 100-1.94.97.97 0 000 1.94zM45.882 10.257a.97.97 0 100-1.94.97.97 0 000 1.94zM45.882 1.94a.97.97 0 100-1.94.97.97 0 000 1.94zM36.94 43.733a.97.97 0 100-1.941.97.97 0 000 1.94zM36.94 35.345a.97.97 0 100-1.94.97.97 0 000 1.94zM36.94 26.96a.97.97 0 100-1.941.97.97 0 000 1.94zM36.94 18.643a.97.97 0 100-1.94.97.97 0 000 1.94zM36.94 10.257a.97.97 0 100-1.94.97.97 0 000 1.94zM36.94 1.94a.97.97 0 100-1.94.97.97 0 000 1.94zM27.93 43.733a.97.97 0 100-1.941.97.97 0 000 1.94zM27.93 35.345a.97.97 0 100-1.94.97.97 0 000 1.94zM27.93 26.96a.97.97 0 100-1.941.97.97 0 000 1.94zM27.93 18.643a.97.97 0 100-1.94.97.97 0 000 1.94zM27.93 10.257a.97.97 0 100-1.94.97.97 0 000 1.94zM27.931 1.94a.97.97 0 100-1.94.97.97 0 000 1.94zM18.921 43.733a.97.97 0 100-1.941.97.97 0 000 1.94zM18.921 35.345a.97.97 0 100-1.94.97.97 0 000 1.94zM18.921 26.96a.97.97 0 100-1.941.97.97 0 000 1.94zM18.921 18.643a.97.97 0 100-1.94.97.97 0 000 1.94zM18.921 10.257a.97.97 0 100-1.94.97.97 0 000 1.94zM18.921 1.94a.97.97 0 100-1.94.97.97 0 000 1.94zM9.911 43.733a.97.97 0 100-1.941.97.97 0 000 1.94zM9.911 35.345a.97.97 0 100-1.94.97.97 0 000 1.94zM9.911 26.96a.97.97 0 100-1.941.97.97 0 000 1.94zM9.911 18.643a.97.97 0 100-1.94.97.97 0 000 1.94zM9.911 10.257a.97.97 0 100-1.94.97.97 0 000 1.94zM9.912 1.94a.97.97 0 100-1.94.97.97 0 000 1.94zM.97 43.733a.97.97 0 100-1.941.97.97 0 000 1.94zM.97 35.345a.97.97 0 100-1.94.97.97 0 000 1.94zM.97 26.96a.97.97 0 100-1.941.97.97 0 000 1.94zM.97 18.643a.97.97 0 100-1.94.97.97 0 000 1.94zM.97 10.257a.97.97 0 100-1.94.97.97 0 000 1.94zM.97 1.94A.97.97 0 10.97 0a.97.97 0 000 1.94z" fill="#64CCE3"/></svg>