<?xml version="1.0" encoding="utf-8"?><svg width="47" height="44" fill="none" xmlns="http://www.w3.org/2000/svg" viewBox="0 0 47 44"><path d="M.97 43.732a.97.97 0 100-1.94.97.97 0 000 1.94zM.97 35.346a.97.97 0 100-1.94.97.97 0 000 1.94zM.97 26.96a.97.97 0 100-1.94.97.97 0 000 1.94zM.97 18.643a.97.97 0 100-1.94.97.97 0 000 1.94zM.97 10.258a.97.97 0 100-1.94.97.97 0 000 1.94zM.971 1.941a.97.97 0 100-1.94.97.97 0 000 1.94zM45.882 43.731a.97.97 0 100-1.94.97.97 0 000 1.94zM45.882 35.346a.97.97 0 100-1.94.97.97 0 000 1.94zM45.882 26.96a.97.97 0 100-1.941.97.97 0 000 1.94zM45.882 18.643a.97.97 0 100-1.94.97.97 0 000 1.94zM45.882 10.257a.97.97 0 100-1.94.97.97 0 000 1.94zM45.882 1.94a.97.97 0 100-1.94.97.97 0 000 1.94zM36.941 43.731a.97.97 0 100-1.94.97.97 0 000 1.94zM36.941 35.346a.97.97 0 100-1.94.97.97 0 000 1.94zM36.941 26.96a.97.97 0 100-1.941.97.97 0 000 1.94zM36.941 18.643a.97.97 0 100-1.94.97.97 0 000 1.94zM36.941 10.257a.97.97 0 100-1.94.97.97 0 000 1.94zM36.941 1.94a.97.97 0 100-1.94.97.97 0 000 1.94zM27.932 43.731a.97.97 0 100-1.94.97.97 0 000 1.94zM27.932 35.346a.97.97 0 100-1.94.97.97 0 000 1.94zM27.932 26.96a.97.97 0 100-1.941.97.97 0 000 1.94zM27.932 18.643a.97.97 0 100-1.94.97.97 0 000 1.94zM27.932 10.257a.97.97 0 100-1.94.97.97 0 000 1.94zM27.931 1.94a.97.97 0 100-1.94.97.97 0 000 1.94zM18.922 43.731a.97.97 0 100-1.94.97.97 0 000 1.94zM18.922 35.346a.97.97 0 100-1.94.97.97 0 000 1.94zM18.922 26.96a.97.97 0 100-1.941.97.97 0 000 1.94zM18.922 18.643a.97.97 0 100-1.94.97.97 0 000 1.94zM18.922 10.257a.97.97 0 100-1.94.97.97 0 000 1.94zM18.921 1.94a.97.97 0 100-1.94.97.97 0 000 1.94zM9.912 43.731a.97.97 0 100-1.94.97.97 0 000 1.94zM9.912 35.346a.97.97 0 100-1.94.97.97 0 000 1.94zM9.912 26.96a.97.97 0 100-1.941.97.97 0 000 1.94zM9.912 18.643a.97.97 0 100-1.941.97.97 0 000 1.94zM9.912 10.257a.97.97 0 100-1.94.97.97 0 000 1.94zM9.912 1.94a.97.97 0 100-1.94.97.97 0 000 1.94z" fill="#DE6944"/></svg>