<?xml version="1.0" encoding="utf-8"?><svg width="26" height="18" fill="none" xmlns="http://www.w3.org/2000/svg" viewBox="0 0 26 18"><path d="M7.96 17.025a.955.955 0 01-.59-.203L.757 11.594a.956.956 0 01-.361-.747V1.342c0-.523.426-.95.95-.95h9.505c.525 0 .95.427.95.95v9.505c0 .523-.425.95-.95.95H7.446l1.41 3.958a.95.95 0 01-.896 1.27zM21.564 16.633a.955.955 0 01-.59-.203l-6.613-5.228a.956.956 0 01-.361-.747V.95c0-.522.426-.95.95-.95h9.505c.525 0 .95.428.95.95v9.505c0 .523-.425.95-.95.95h-3.404l1.41 3.959a.95.95 0 01-.897 1.27z" fill="#26C296"/></svg>