<?xml version="1.0" encoding="utf-8"?><svg viewBox="0 0 127 127" xmlns="http://www.w3.org/2000/svg" xmlns:xlink="http://www.w3.org/1999/xlink"><style>:root>svg{display:none}:root>svg:target{display:block}</style><svg fill="none" viewBox="0 0 122 122" id="circle-footer-border" xmlns="http://www.w3.org/2000/svg"><path d="M61.088 121.176C27.96 121.176 1 94.216 1 61.088S27.96 1 61.088 1s60.088 26.96 60.088 60.088-26.96 60.088-60.088 60.088zm0-97.236c-20.445 0-37.148 16.634-37.148 37.148 0 20.514 16.634 37.148 37.148 37.148 20.514 0 37.148-16.634 37.148-37.148 0-20.514-16.634-37.148-37.148-37.148z" stroke="#F5AC18" stroke-width=".693" stroke-miterlimit="10"/></svg><svg fill="none" viewBox="0 0 42 42" id="circle-header-border" xmlns="http://www.w3.org/2000/svg"><path d="M21.099 41.197C10.018 41.197 1 32.18 1 21.1 1 10.018 10.018 1 21.099 1c11.08 0 20.098 9.018 20.098 20.099 0 11.08-9.018 20.098-20.098 20.098zm0-32.524c-6.839 0-12.426 5.564-12.426 12.426 0 6.861 5.564 12.425 12.426 12.425 6.861 0 12.425-5.564 12.425-12.425 0-6.862-5.564-12.426-12.425-12.426z" stroke="#DE6944" stroke-width=".693" stroke-miterlimit="10"/></svg><svg fill="none" viewBox="0 0 127 127" id="circle-header-filled" xmlns="http://www.w3.org/2000/svg"><path d="M63.5 127C28.532 127 0 98.495 0 63.44 0 28.383 28.532 0 63.5 0S127 28.505 127 63.44C127 98.372 98.589 127 63.5 127zm0-102.74c-21.612 0-39.217 17.588-39.217 39.18 0 21.59 17.605 39.179 39.217 39.179s39.217-17.588 39.217-39.18c0-21.59-17.484-39.18-39.217-39.18z" fill="#F26A36"/></svg><svg fill="none" viewBox="0 0 62 61" id="circle-request-form-filled" xmlns="http://www.w3.org/2000/svg"><path d="M31.037 60.997C14.245 60.997.543 47.308.543 30.474.543 13.639 14.245.008 31.037.008c16.793 0 30.495 13.69 30.495 30.466 0 16.776-13.644 30.523-30.495 30.523zm0-49.339c-10.378 0-18.833 8.447-18.833 18.816 0 10.368 8.455 18.815 18.833 18.815 10.379 0 18.834-8.447 18.834-18.815 0-10.37-8.397-18.816-18.834-18.816z" fill="#64CCE3"/></svg><svg fill="none" viewBox="0 0 47 44" id="dotted-feedback-square" xmlns="http://www.w3.org/2000/svg"><path d="M45.882 43.733a.97.97 0 100-1.94.97.97 0 000 1.94zM45.882 35.345a.97.97 0 100-1.94.97.97 0 000 1.94zM45.882 26.96a.97.97 0 100-1.941.97.97 0 000 1.94zM45.882 18.643a.97.97 0 100-1.94.97.97 0 000 1.94zM45.882 10.257a.97.97 0 100-1.94.97.97 0 000 1.94zM45.882 1.94a.97.97 0 100-1.94.97.97 0 000 1.94zM36.94 43.733a.97.97 0 100-1.941.97.97 0 000 1.94zM36.94 35.345a.97.97 0 100-1.94.97.97 0 000 1.94zM36.94 26.96a.97.97 0 100-1.941.97.97 0 000 1.94zM36.94 18.643a.97.97 0 100-1.94.97.97 0 000 1.94zM36.94 10.257a.97.97 0 100-1.94.97.97 0 000 1.94zM36.94 1.94a.97.97 0 100-1.94.97.97 0 000 1.94zM27.93 43.733a.97.97 0 100-1.941.97.97 0 000 1.94zM27.93 35.345a.97.97 0 100-1.94.97.97 0 000 1.94zM27.93 26.96a.97.97 0 100-1.941.97.97 0 000 1.94zM27.93 18.643a.97.97 0 100-1.94.97.97 0 000 1.94zM27.93 10.257a.97.97 0 100-1.94.97.97 0 000 1.94zM27.931 1.94a.97.97 0 100-1.94.97.97 0 000 1.94zM18.921 43.733a.97.97 0 100-1.941.97.97 0 000 1.94zM18.921 35.345a.97.97 0 100-1.94.97.97 0 000 1.94zM18.921 26.96a.97.97 0 100-1.941.97.97 0 000 1.94zM18.921 18.643a.97.97 0 100-1.94.97.97 0 000 1.94zM18.921 10.257a.97.97 0 100-1.94.97.97 0 000 1.94zM18.921 1.94a.97.97 0 100-1.94.97.97 0 000 1.94zM9.911 43.733a.97.97 0 100-1.941.97.97 0 000 1.94zM9.911 35.345a.97.97 0 100-1.94.97.97 0 000 1.94zM9.911 26.96a.97.97 0 100-1.941.97.97 0 000 1.94zM9.911 18.643a.97.97 0 100-1.94.97.97 0 000 1.94zM9.911 10.257a.97.97 0 100-1.94.97.97 0 000 1.94zM9.912 1.94a.97.97 0 100-1.94.97.97 0 000 1.94zM.97 43.733a.97.97 0 100-1.941.97.97 0 000 1.94zM.97 35.345a.97.97 0 100-1.94.97.97 0 000 1.94zM.97 26.96a.97.97 0 100-1.941.97.97 0 000 1.94zM.97 18.643a.97.97 0 100-1.94.97.97 0 000 1.94zM.97 10.257a.97.97 0 100-1.94.97.97 0 000 1.94zM.97 1.94A.97.97 0 10.97 0a.97.97 0 000 1.94z" fill="#64CCE3"/></svg><svg fill="none" viewBox="0 0 47 44" id="dotted-header-square" xmlns="http://www.w3.org/2000/svg"><path d="M.97 43.732a.97.97 0 100-1.94.97.97 0 000 1.94zM.97 35.346a.97.97 0 100-1.94.97.97 0 000 1.94zM.97 26.96a.97.97 0 100-1.94.97.97 0 000 1.94zM.97 18.643a.97.97 0 100-1.94.97.97 0 000 1.94zM.97 10.258a.97.97 0 100-1.94.97.97 0 000 1.94zM.971 1.941a.97.97 0 100-1.94.97.97 0 000 1.94zM45.882 43.731a.97.97 0 100-1.94.97.97 0 000 1.94zM45.882 35.346a.97.97 0 100-1.94.97.97 0 000 1.94zM45.882 26.96a.97.97 0 100-1.941.97.97 0 000 1.94zM45.882 18.643a.97.97 0 100-1.94.97.97 0 000 1.94zM45.882 10.257a.97.97 0 100-1.94.97.97 0 000 1.94zM45.882 1.94a.97.97 0 100-1.94.97.97 0 000 1.94zM36.941 43.731a.97.97 0 100-1.94.97.97 0 000 1.94zM36.941 35.346a.97.97 0 100-1.94.97.97 0 000 1.94zM36.941 26.96a.97.97 0 100-1.941.97.97 0 000 1.94zM36.941 18.643a.97.97 0 100-1.94.97.97 0 000 1.94zM36.941 10.257a.97.97 0 100-1.94.97.97 0 000 1.94zM36.941 1.94a.97.97 0 100-1.94.97.97 0 000 1.94zM27.932 43.731a.97.97 0 100-1.94.97.97 0 000 1.94zM27.932 35.346a.97.97 0 100-1.94.97.97 0 000 1.94zM27.932 26.96a.97.97 0 100-1.941.97.97 0 000 1.94zM27.932 18.643a.97.97 0 100-1.94.97.97 0 000 1.94zM27.932 10.257a.97.97 0 100-1.94.97.97 0 000 1.94zM27.931 1.94a.97.97 0 100-1.94.97.97 0 000 1.94zM18.922 43.731a.97.97 0 100-1.94.97.97 0 000 1.94zM18.922 35.346a.97.97 0 100-1.94.97.97 0 000 1.94zM18.922 26.96a.97.97 0 100-1.941.97.97 0 000 1.94zM18.922 18.643a.97.97 0 100-1.94.97.97 0 000 1.94zM18.922 10.257a.97.97 0 100-1.94.97.97 0 000 1.94zM18.921 1.94a.97.97 0 100-1.94.97.97 0 000 1.94zM9.912 43.731a.97.97 0 100-1.94.97.97 0 000 1.94zM9.912 35.346a.97.97 0 100-1.94.97.97 0 000 1.94zM9.912 26.96a.97.97 0 100-1.941.97.97 0 000 1.94zM9.912 18.643a.97.97 0 100-1.941.97.97 0 000 1.94zM9.912 10.257a.97.97 0 100-1.94.97.97 0 000 1.94zM9.912 1.94a.97.97 0 100-1.94.97.97 0 000 1.94z" fill="#DE6944"/></svg><svg fill="none" viewBox="0 0 10 8" id="gray-check-mark" xmlns="http://www.w3.org/2000/svg"><path fill-rule="evenodd" clip-rule="evenodd" d="M9.208 1.658L4.026 7.052c-.289.3-.75.3-1.039 0L.402 4.338a.79.79 0 010-1.086c.288-.3.75-.3 1.038 0l2.078 2.172L8.181.572c.288-.3.75-.3 1.039 0 .277.3.277.786-.012 1.086z" fill="#73738D"/></svg><svg fill="none" viewBox="0 0 26 18" id="quotes" xmlns="http://www.w3.org/2000/svg"><path d="M7.96 17.025a.955.955 0 01-.59-.203L.757 11.594a.956.956 0 01-.361-.747V1.342c0-.523.426-.95.95-.95h9.505c.525 0 .95.427.95.95v9.505c0 .523-.425.95-.95.95H7.446l1.41 3.958a.95.95 0 01-.896 1.27zM21.564 16.633a.955.955 0 01-.59-.203l-6.613-5.228a.956.956 0 01-.361-.747V.95c0-.522.426-.95.95-.95h9.505c.525 0 .95.428.95.95v9.505c0 .523-.425.95-.95.95h-3.404l1.41 3.959a.95.95 0 01-.897 1.27z" fill="#26C296"/></svg></svg>