<svg width="103" height="19" viewBox="0 0 103 19" fill="none" xmlns="http://www.w3.org/2000/svg">
<path d="M10.0599 18.257L6.65921 12.3962H4.12679V18.257H0.798458V1.37412H7.55159C9.11124 1.37412 10.4378 1.92081 11.5311 3.01417C12.6245 4.10754 13.1712 5.426 13.1712 6.96958C13.1712 8.0147 12.8737 8.98748 12.2788 9.8879C11.6839 10.7722 10.896 11.4395 9.91519 11.8897L13.6535 18.257H10.0599ZM4.12679 4.48539V9.47788H7.55159C8.17867 9.47788 8.71731 9.2367 9.16752 8.75433C9.61773 8.25589 9.84283 7.66097 9.84283 6.96958C9.84283 6.27818 9.61773 5.69131 9.16752 5.20894C8.71731 4.72657 8.17867 4.48539 7.55159 4.48539H4.12679ZM17.4851 13.5056C17.9032 15.0171 19.0368 15.7728 20.8858 15.7728C22.0757 15.7728 22.9761 15.3708 23.5871 14.5669L26.0954 16.014C24.9056 17.7344 23.153 18.5946 20.8376 18.5946C18.8438 18.5946 17.244 17.9917 16.038 16.7857C14.8321 15.5798 14.2292 14.0604 14.2292 12.2274C14.2292 10.4105 14.8241 8.89904 16.0139 7.69313C17.2038 6.47113 18.7313 5.86013 20.5964 5.86013C22.3651 5.86013 23.8202 6.47113 24.9618 7.69313C26.1195 8.91512 26.6983 10.4265 26.6983 12.2274C26.6983 12.6293 26.6581 13.0554 26.5778 13.5056H17.4851ZM17.4369 11.0938H23.5871C23.4102 10.2738 23.0404 9.66279 22.4776 9.26082C21.931 8.85885 21.3039 8.65786 20.5964 8.65786C19.7603 8.65786 19.0689 8.87493 18.5222 9.30906C17.9755 9.72711 17.6138 10.322 17.4369 11.0938ZM28.8703 18.257V0.650574H31.9816V18.257H28.8703ZM43.9942 6.19779H47.1055V18.257H43.9942V16.834C43.0616 18.0077 41.7512 18.5946 40.0629 18.5946C38.455 18.5946 37.0722 17.9836 35.9146 16.7616C34.773 15.5235 34.2022 14.0121 34.2022 12.2274C34.2022 10.4426 34.773 8.93924 35.9146 7.71725C37.0722 6.47917 38.455 5.86013 40.0629 5.86013C41.7512 5.86013 43.0616 6.44701 43.9942 7.62077V6.19779ZM38.254 14.6874C38.8811 15.3145 39.677 15.6281 40.6418 15.6281C41.6065 15.6281 42.4024 15.3145 43.0295 14.6874C43.6726 14.0443 43.9942 13.2243 43.9942 12.2274C43.9942 11.2305 43.6726 10.4185 43.0295 9.79142C42.4024 9.14827 41.6065 8.82669 40.6418 8.82669C39.677 8.82669 38.8811 9.14827 38.254 9.79142C37.627 10.4185 37.3134 11.2305 37.3134 12.2274C37.3134 13.2243 37.627 14.0443 38.254 14.6874ZM56.8246 9.18846H54.0992V14.2051C54.0992 14.6231 54.2037 14.9286 54.4128 15.1216C54.6218 15.3145 54.9273 15.4271 55.3293 15.4592C55.7312 15.4753 56.2297 15.4673 56.8246 15.4351V18.257C54.6861 18.4981 53.1747 18.2972 52.2903 17.654C51.4221 17.0108 50.988 15.8612 50.988 14.2051V9.18846H48.8897V6.19779H50.988V3.76184L54.0992 2.82122V6.19779H56.8246V9.18846ZM60.5618 4.75069C60.0473 4.75069 59.5971 4.56578 59.2112 4.19597C58.8414 3.81008 58.6565 3.35987 58.6565 2.84534C58.6565 2.33082 58.8414 1.88061 59.2112 1.49471C59.5971 1.10882 60.0473 0.915875 60.5618 0.915875C61.0924 0.915875 61.5426 1.10882 61.9124 1.49471C62.2983 1.88061 62.4913 2.33082 62.4913 2.84534C62.4913 3.35987 62.2983 3.81008 61.9124 4.19597C61.5426 4.56578 61.0924 4.75069 60.5618 4.75069ZM59.0182 18.257V6.19779H62.1295V18.257H59.0182ZM75.2516 16.7616C74.0135 17.9836 72.5021 18.5946 70.7173 18.5946C68.9326 18.5946 67.4211 17.9836 66.1831 16.7616C64.9611 15.5235 64.3501 14.0121 64.3501 12.2274C64.3501 10.4426 64.9611 8.93924 66.1831 7.71725C67.4211 6.47917 68.9326 5.86013 70.7173 5.86013C72.5021 5.86013 74.0135 6.47917 75.2516 7.71725C76.4896 8.93924 77.1087 10.4426 77.1087 12.2274C77.1087 14.0121 76.4896 15.5235 75.2516 16.7616ZM68.3778 14.6151C69.0049 15.2422 69.7847 15.5557 70.7173 15.5557C71.6499 15.5557 72.4297 15.2422 73.0568 14.6151C73.6839 13.988 73.9974 13.1921 73.9974 12.2274C73.9974 11.2626 73.6839 10.4667 73.0568 9.83966C72.4297 9.21258 71.6499 8.89904 70.7173 8.89904C69.7847 8.89904 69.0049 9.21258 68.3778 9.83966C67.7668 10.4667 67.4613 11.2626 67.4613 12.2274C67.4613 13.1921 67.7668 13.988 68.3778 14.6151ZM86.0023 5.86013C87.3208 5.86013 88.4061 6.3023 89.2583 7.18664C90.1265 8.07098 90.5607 9.29298 90.5607 10.8526V18.257H87.4494V11.2385C87.4494 10.4346 87.2323 9.82358 86.7982 9.40553C86.3641 8.9714 85.7852 8.75433 85.0617 8.75433C84.2578 8.75433 83.6146 9.00356 83.1322 9.502C82.6499 10.0004 82.4087 10.7481 82.4087 11.745V18.257H79.2974V6.19779H82.4087V7.54842C83.1644 6.4229 84.3623 5.86013 86.0023 5.86013ZM96.8861 15.3386H102.24V18.257H92.7136V16.1828L97.8026 9.11611H92.9548V6.19779H101.999V8.27197L96.8861 15.3386Z" fill="#222222"/>
</svg>
