<svg width="47" height="44" viewBox="0 0 47 44" fill="none" xmlns="http://www.w3.org/2000/svg">
<path d="M0.970278 43.7321C1.50615 43.7321 1.94056 43.2977 1.94056 42.7618C1.94056 42.2259 1.50615 41.7915 0.970278 41.7915C0.434408 41.7915 0 42.2259 0 42.7618C0 43.2977 0.434408 43.7321 0.970278 43.7321Z" fill="#DE6944"/>
<path d="M0.970278 35.3464C1.50615 35.3464 1.94056 34.912 1.94056 34.3762C1.94056 33.8403 1.50615 33.4059 0.970278 33.4059C0.434408 33.4059 0 33.8403 0 34.3762C0 34.912 0.434408 35.3464 0.970278 35.3464Z" fill="#DE6944"/>
<path d="M0.970278 26.9599C1.50615 26.9599 1.94056 26.5255 1.94056 25.9896C1.94056 25.4538 1.50615 25.0193 0.970278 25.0193C0.434408 25.0193 0 25.4538 0 25.9896C0 26.5255 0.434408 26.9599 0.970278 26.9599Z" fill="#DE6944"/>
<path d="M0.970278 18.6433C1.50615 18.6433 1.94056 18.2088 1.94056 17.673C1.94056 17.1371 1.50615 16.7027 0.970278 16.7027C0.434408 16.7027 0 17.1371 0 17.673C0 18.2088 0.434408 18.6433 0.970278 18.6433Z" fill="#DE6944"/>
<path d="M0.970278 10.2577C1.50615 10.2577 1.94056 9.82329 1.94056 9.28742C1.94056 8.75155 1.50615 8.31714 0.970278 8.31714C0.434408 8.31714 0 8.75155 0 9.28742C0 9.82329 0.434408 10.2577 0.970278 10.2577Z" fill="#DE6944"/>
<path d="M0.971254 1.94117C1.50712 1.94117 1.94153 1.50676 1.94153 0.970888C1.94153 0.435018 1.50712 0.000610352 0.971254 0.000610352C0.435385 0.000610352 0.000976562 0.435018 0.000976562 0.970888C0.000976562 1.50676 0.435385 1.94117 0.971254 1.94117Z" fill="#DE6944"/>
<path d="M45.8817 43.7314C46.4175 43.7314 46.8519 43.297 46.8519 42.7612C46.8519 42.2253 46.4175 41.7909 45.8817 41.7909C45.3458 41.7909 44.9114 42.2253 44.9114 42.7612C44.9114 43.297 45.3458 43.7314 45.8817 43.7314Z" fill="#DE6944"/>
<path d="M45.8817 35.3458C46.4175 35.3458 46.8519 34.9114 46.8519 34.3755C46.8519 33.8397 46.4175 33.4053 45.8817 33.4053C45.3458 33.4053 44.9114 33.8397 44.9114 34.3755C44.9114 34.9114 45.3458 35.3458 45.8817 35.3458Z" fill="#DE6944"/>
<path d="M45.8817 26.9593C46.4175 26.9593 46.8519 26.5249 46.8519 25.989C46.8519 25.4531 46.4175 25.0187 45.8817 25.0187C45.3458 25.0187 44.9114 25.4531 44.9114 25.989C44.9114 26.5249 45.3458 26.9593 45.8817 26.9593Z" fill="#DE6944"/>
<path d="M45.8817 18.6426C46.4175 18.6426 46.8519 18.2082 46.8519 17.6724C46.8519 17.1365 46.4175 16.7021 45.8817 16.7021C45.3458 16.7021 44.9114 17.1365 44.9114 17.6724C44.9114 18.2082 45.3458 18.6426 45.8817 18.6426Z" fill="#DE6944"/>
<path d="M45.8817 10.2571C46.4175 10.2571 46.8519 9.82268 46.8519 9.28681C46.8519 8.75094 46.4175 8.31653 45.8817 8.31653C45.3458 8.31653 44.9114 8.75094 44.9114 9.28681C44.9114 9.82268 45.3458 10.2571 45.8817 10.2571Z" fill="#DE6944"/>
<path d="M45.8819 1.94056C46.4178 1.94056 46.8522 1.50615 46.8522 0.970278C46.8522 0.434408 46.4178 0 45.8819 0C45.346 0 44.9116 0.434408 44.9116 0.970278C44.9116 1.50615 45.346 1.94056 45.8819 1.94056Z" fill="#DE6944"/>
<path d="M36.9412 43.7314C37.4771 43.7314 37.9115 43.297 37.9115 42.7612C37.9115 42.2253 37.4771 41.7909 36.9412 41.7909C36.4054 41.7909 35.9709 42.2253 35.9709 42.7612C35.9709 43.297 36.4054 43.7314 36.9412 43.7314Z" fill="#DE6944"/>
<path d="M36.9412 35.3458C37.4771 35.3458 37.9115 34.9114 37.9115 34.3755C37.9115 33.8397 37.4771 33.4053 36.9412 33.4053C36.4054 33.4053 35.9709 33.8397 35.9709 34.3755C35.9709 34.9114 36.4054 35.3458 36.9412 35.3458Z" fill="#DE6944"/>
<path d="M36.9412 26.9593C37.4771 26.9593 37.9115 26.5249 37.9115 25.989C37.9115 25.4531 37.4771 25.0187 36.9412 25.0187C36.4054 25.0187 35.9709 25.4531 35.9709 25.989C35.9709 26.5249 36.4054 26.9593 36.9412 26.9593Z" fill="#DE6944"/>
<path d="M36.9412 18.6426C37.4771 18.6426 37.9115 18.2082 37.9115 17.6724C37.9115 17.1365 37.4771 16.7021 36.9412 16.7021C36.4054 16.7021 35.9709 17.1365 35.9709 17.6724C35.9709 18.2082 36.4054 18.6426 36.9412 18.6426Z" fill="#DE6944"/>
<path d="M36.9412 10.2571C37.4771 10.2571 37.9115 9.82268 37.9115 9.28681C37.9115 8.75094 37.4771 8.31653 36.9412 8.31653C36.4054 8.31653 35.9709 8.75094 35.9709 9.28681C35.9709 9.82268 36.4054 10.2571 36.9412 10.2571Z" fill="#DE6944"/>
<path d="M36.941 1.94056C37.4768 1.94056 37.9113 1.50615 37.9113 0.970278C37.9113 0.434408 37.4768 0 36.941 0C36.4051 0 35.9707 0.434408 35.9707 0.970278C35.9707 1.50615 36.4051 1.94056 36.941 1.94056Z" fill="#DE6944"/>
<path d="M27.9317 43.7314C28.4676 43.7314 28.902 43.297 28.902 42.7612C28.902 42.2253 28.4676 41.7909 27.9317 41.7909C27.3958 41.7909 26.9614 42.2253 26.9614 42.7612C26.9614 43.297 27.3958 43.7314 27.9317 43.7314Z" fill="#DE6944"/>
<path d="M27.9317 35.3458C28.4676 35.3458 28.902 34.9114 28.902 34.3755C28.902 33.8397 28.4676 33.4053 27.9317 33.4053C27.3958 33.4053 26.9614 33.8397 26.9614 34.3755C26.9614 34.9114 27.3958 35.3458 27.9317 35.3458Z" fill="#DE6944"/>
<path d="M27.9317 26.9593C28.4676 26.9593 28.902 26.5249 28.902 25.989C28.902 25.4531 28.4676 25.0187 27.9317 25.0187C27.3958 25.0187 26.9614 25.4531 26.9614 25.989C26.9614 26.5249 27.3958 26.9593 27.9317 26.9593Z" fill="#DE6944"/>
<path d="M27.9317 18.6426C28.4676 18.6426 28.902 18.2082 28.902 17.6724C28.902 17.1365 28.4676 16.7021 27.9317 16.7021C27.3958 16.7021 26.9614 17.1365 26.9614 17.6724C26.9614 18.2082 27.3958 18.6426 27.9317 18.6426Z" fill="#DE6944"/>
<path d="M27.9317 10.2571C28.4676 10.2571 28.902 9.82268 28.902 9.28681C28.902 8.75094 28.4676 8.31653 27.9317 8.31653C27.3958 8.31653 26.9614 8.75094 26.9614 9.28681C26.9614 9.82268 27.3958 10.2571 27.9317 10.2571Z" fill="#DE6944"/>
<path d="M27.9312 1.94056C28.4671 1.94056 28.9015 1.50615 28.9015 0.970278C28.9015 0.434408 28.4671 0 27.9312 0C27.3953 0 26.9609 0.434408 26.9609 0.970278C26.9609 1.50615 27.3953 1.94056 27.9312 1.94056Z" fill="#DE6944"/>
<path d="M18.9219 43.7314C19.4578 43.7314 19.8922 43.297 19.8922 42.7612C19.8922 42.2253 19.4578 41.7909 18.9219 41.7909C18.3861 41.7909 17.9517 42.2253 17.9517 42.7612C17.9517 43.297 18.3861 43.7314 18.9219 43.7314Z" fill="#DE6944"/>
<path d="M18.9219 35.3458C19.4578 35.3458 19.8922 34.9114 19.8922 34.3755C19.8922 33.8397 19.4578 33.4053 18.9219 33.4053C18.3861 33.4053 17.9517 33.8397 17.9517 34.3755C17.9517 34.9114 18.3861 35.3458 18.9219 35.3458Z" fill="#DE6944"/>
<path d="M18.9219 26.9593C19.4578 26.9593 19.8922 26.5249 19.8922 25.989C19.8922 25.4531 19.4578 25.0187 18.9219 25.0187C18.3861 25.0187 17.9517 25.4531 17.9517 25.989C17.9517 26.5249 18.3861 26.9593 18.9219 26.9593Z" fill="#DE6944"/>
<path d="M18.9219 18.6426C19.4578 18.6426 19.8922 18.2082 19.8922 17.6724C19.8922 17.1365 19.4578 16.7021 18.9219 16.7021C18.3861 16.7021 17.9517 17.1365 17.9517 17.6724C17.9517 18.2082 18.3861 18.6426 18.9219 18.6426Z" fill="#DE6944"/>
<path d="M18.9219 10.2571C19.4578 10.2571 19.8922 9.82268 19.8922 9.28681C19.8922 8.75094 19.4578 8.31653 18.9219 8.31653C18.3861 8.31653 17.9517 8.75094 17.9517 9.28681C17.9517 9.82268 18.3861 10.2571 18.9219 10.2571Z" fill="#DE6944"/>
<path d="M18.9214 1.94056C19.4573 1.94056 19.8917 1.50615 19.8917 0.970278C19.8917 0.434408 19.4573 0 18.9214 0C18.3856 0 17.9512 0.434408 17.9512 0.970278C17.9512 1.50615 18.3856 1.94056 18.9214 1.94056Z" fill="#DE6944"/>
<path d="M9.91217 43.7314C10.448 43.7314 10.8825 43.297 10.8825 42.7612C10.8825 42.2253 10.448 41.7909 9.91217 41.7909C9.3763 41.7909 8.94189 42.2253 8.94189 42.7612C8.94189 43.297 9.3763 43.7314 9.91217 43.7314Z" fill="#DE6944"/>
<path d="M9.91217 35.3458C10.448 35.3458 10.8825 34.9114 10.8825 34.3755C10.8825 33.8397 10.448 33.4053 9.91217 33.4053C9.3763 33.4053 8.94189 33.8397 8.94189 34.3755C8.94189 34.9114 9.3763 35.3458 9.91217 35.3458Z" fill="#DE6944"/>
<path d="M9.91217 26.9593C10.448 26.9593 10.8825 26.5249 10.8825 25.989C10.8825 25.4531 10.448 25.0187 9.91217 25.0187C9.3763 25.0187 8.94189 25.4531 8.94189 25.989C8.94189 26.5249 9.3763 26.9593 9.91217 26.9593Z" fill="#DE6944"/>
<path d="M9.91217 18.6426C10.448 18.6426 10.8825 18.2082 10.8825 17.6724C10.8825 17.1365 10.448 16.7021 9.91217 16.7021C9.3763 16.7021 8.94189 17.1365 8.94189 17.6724C8.94189 18.2082 9.3763 18.6426 9.91217 18.6426Z" fill="#DE6944"/>
<path d="M9.91217 10.2571C10.448 10.2571 10.8825 9.82268 10.8825 9.28681C10.8825 8.75094 10.448 8.31653 9.91217 8.31653C9.3763 8.31653 8.94189 8.75094 8.94189 9.28681C8.94189 9.82268 9.3763 10.2571 9.91217 10.2571Z" fill="#DE6944"/>
<path d="M9.91168 1.94056C10.4476 1.94056 10.882 1.50615 10.882 0.970278C10.882 0.434408 10.4476 0 9.91168 0C9.37581 0 8.94141 0.434408 8.94141 0.970278C8.94141 1.50615 9.37581 1.94056 9.91168 1.94056Z" fill="#DE6944"/>
</svg>
