<svg width="26" height="18" viewBox="0 0 26 18" fill="none" xmlns="http://www.w3.org/2000/svg">
<path d="M7.9597 17.0249C7.7506 17.0249 7.54339 16.9565 7.37041 16.8215L0.756994 11.5939C0.52888 11.4114 0.395813 11.1377 0.395813 10.8468V1.34208C0.395813 0.819315 0.821626 0.391602 1.34629 0.391602H10.8511C11.3757 0.391602 11.8015 0.819315 11.8015 1.34208V10.8468C11.8015 11.3696 11.3757 11.7973 10.8511 11.7973H7.44644L8.85695 15.7551C8.99952 16.1543 8.85885 16.5991 8.51478 16.8462C8.3513 16.966 8.1574 17.0249 7.9597 17.0249Z" fill="#26C296"/>
<path d="M21.5639 16.6333C21.3548 16.6333 21.1476 16.5649 20.9746 16.4299L14.3612 11.2023C14.1331 11.0198 14 10.7461 14 10.4552V0.950478C14 0.427714 14.4258 0 14.9505 0H24.4552C24.9799 0 25.4057 0.427714 25.4057 0.950478V10.4552C25.4057 10.978 24.9799 11.4057 24.4552 11.4057H21.0506L22.4611 15.3635C22.6037 15.7627 22.463 16.2075 22.119 16.4546C21.9555 16.5744 21.7616 16.6333 21.5639 16.6333Z" fill="#26C296"/>
</svg>
