<svg width="103" height="19" viewBox="0 0 103 19" fill="none" xmlns="http://www.w3.org/2000/svg"><path d="M10.06 18.257l-3.4-5.86H4.126v5.86H.798V1.374h6.754c1.56 0 2.886.547 3.98 1.64 1.092 1.094 1.64 2.412 1.64 3.956a5.193 5.193 0 01-.893 2.918 5.616 5.616 0 01-2.364 2.002l3.739 6.367H10.06zM4.127 4.485v4.993h3.425c.627 0 1.165-.241 1.616-.724a2.57 2.57 0 00.675-1.784c0-.692-.225-1.279-.675-1.761-.45-.482-.99-.724-1.616-.724H4.127zm13.358 9.02c.418 1.512 1.552 2.268 3.4 2.268 1.19 0 2.091-.402 2.702-1.206l2.508 1.447c-1.19 1.72-2.942 2.58-5.257 2.58-1.994 0-3.594-.602-4.8-1.808s-1.809-2.726-1.809-4.559c0-1.816.595-3.328 1.785-4.534 1.19-1.222 2.717-1.833 4.582-1.833 1.77 0 3.224.611 4.366 1.833 1.157 1.222 1.736 2.734 1.736 4.534 0 .402-.04.828-.12 1.279h-9.093zm-.048-2.411h6.15c-.177-.82-.547-1.431-1.11-1.833a3.092 3.092 0 00-1.88-.603c-.837 0-1.528.217-2.075.651-.546.418-.908 1.013-1.085 1.785zm11.433 7.163V.651h3.112v17.606H28.87zm15.124-12.06h3.111v12.06h-3.11v-1.423c-.933 1.174-2.244 1.76-3.932 1.76-1.608 0-2.99-.61-4.148-1.832-1.142-1.239-1.713-2.75-1.713-4.535 0-1.784.571-3.288 1.713-4.51 1.157-1.238 2.54-1.857 4.148-1.857 1.688 0 2.999.587 3.931 1.76V6.199zm-5.74 8.49c.627.628 1.423.941 2.388.941.964 0 1.76-.313 2.387-.94.644-.644.965-1.464.965-2.46 0-.998-.321-1.81-.965-2.437-.627-.643-1.423-.964-2.387-.964-.965 0-1.76.321-2.388.964-.627.627-.94 1.44-.94 2.436 0 .997.313 1.817.94 2.46zm18.57-5.499H54.1v5.017c0 .418.105.724.314.917.209.193.514.305.916.337.402.016.9.008 1.496-.024v2.822c-2.139.241-3.65.04-4.535-.603-.868-.643-1.302-1.793-1.302-3.449V9.188H48.89v-2.99h2.098V3.762l3.111-.94v3.376h2.726v2.99zm3.738-4.437a1.89 1.89 0 01-1.905-1.906c0-.514.184-.964.554-1.35.386-.386.836-.58 1.35-.58a1.8 1.8 0 011.351.58c.386.386.58.836.58 1.35 0 .515-.194.965-.58 1.351-.37.37-.82.555-1.35.555zm-1.544 13.506V6.197h3.111v12.06h-3.11zm16.234-1.495c-1.239 1.222-2.75 1.833-4.535 1.833-1.784 0-3.296-.611-4.534-1.833-1.222-1.239-1.833-2.75-1.833-4.535 0-1.784.611-3.288 1.833-4.51 1.238-1.238 2.75-1.857 4.534-1.857 1.785 0 3.296.62 4.535 1.857 1.238 1.222 1.857 2.726 1.857 4.51 0 1.785-.62 3.296-1.857 4.535zm-6.874-2.147c.627.627 1.407.94 2.34.94.932 0 1.712-.313 2.339-.94s.94-1.423.94-2.388c0-.964-.313-1.76-.94-2.387s-1.407-.941-2.34-.941c-.932 0-1.712.314-2.34.94-.61.628-.916 1.424-.916 2.388 0 .965.306 1.761.917 2.388zM86.002 5.86c1.319 0 2.404.442 3.256 1.327.868.884 1.303 2.106 1.303 3.666v7.404h-3.112v-7.019c0-.803-.217-1.414-.65-1.832-.435-.435-1.014-.652-1.737-.652-.804 0-1.447.25-1.93.748-.482.498-.723 1.246-.723 2.243v6.512h-3.112V6.197h3.112v1.351c.755-1.125 1.953-1.688 3.593-1.688zm10.884 9.479h5.354v2.918h-9.526v-2.074l5.089-7.067h-4.848V6.198h9.044v2.074l-5.113 7.067z" fill="#222"/></svg>